# xmcd
#
# Track frame offsets:
#	150
#	16427
#	33280
#	54725
#	71500
#	90517
#	106462
#	119995
#	135082
#	139230
#	170635
#	187077
#	203632
#	220470
#	236937
#	256342
#	276757
#	298975
#
# Disc length: 4287 seconds
# Revision: 0
# Processed by: cddbd v1.5.2PL0 Copyright (c) Steve Scherf et al.
# Submitted via: dBpowerAMP V12.0
#
DISCID=2110bd12
DTITLE=Shania Twain - Come on Over [Australia Bonus Tracks CD]
DYEAR=1997
DGENRE=Country
TTITLE0=You're Still the One
TTITLE1=When
TTITLE2=From This Moment On
TTITLE3=Black Eyes, Blue Tears
TTITLE4=I Won't Leave You Lonely
TTITLE5=I'm Holdin' on to Love (To Save My Life)
TTITLE6=Come on Over
TTITLE7=You've Got a Way [Notting Hill Version]
TTITLE8=Whatever You Do! Don't!
TTITLE9=Man! I Feel Like a Woman!
TTITLE10=Love Gets Me Every Time
TTITLE11=Don't Be Stupid (You Know I Love You)
TTITLE12=That Don't Impress Me Much [Dance Mix]
TTITLE13=Honey, I'm Home
TTITLE14=If You Wanna Touch Her, Ask!
TTITLE15=Rock This Country!
TTITLE16=(If You're Not in It for Love) I'm Outta Here [Live/Direct TV Mix][Live
TTITLE17=Love Gets Me Every Time [*][Dance Mix]
EXTD=
EXTT0=
EXTT1=
EXTT2=
EXTT3=
EXTT4=
EXTT5=
EXTT6=
EXTT7=
EXTT8=
EXTT9=
EXTT10=
EXTT11=
EXTT12=
EXTT13=
EXTT14=
EXTT15=
EXTT16=
EXTT17=
PLAYORDER=
